<svg width="24" height="24" viewBox="0 0 24 24" fill="none" xmlns="http://www.w3.org/2000/svg">
  <path d="M12 0C5.376 0 0 5.376 0 12C0 18.624 5.376 24 12 24C18.624 24 24 18.624 24 12C24 5.376 18.624 0 12 0ZM17.568 8.16C17.388 10.056 16.608 14.664 16.212 16.788C16.044 17.688 15.708 18 15.396 18.036C14.7 18.108 14.172 17.592 13.5 17.148C12.444 16.464 11.844 16.044 10.824 15.384C9.636 14.616 10.404 14.196 11.088 13.476C11.268 13.284 14.34 10.56 14.4 10.308C14.412 10.272 14.412 10.164 14.352 10.116C14.292 10.068 14.208 10.08 14.136 10.092C14.04 10.104 12.372 11.232 9.144 13.464C8.64 13.812 8.184 13.98 7.776 13.968C7.332 13.956 6.492 13.74 5.868 13.548C5.112 13.32 4.524 13.2 4.572 12.756C4.596 12.528 4.896 12.288 5.46 12.048C8.964 10.464 11.292 9.408 12.456 8.88C15.792 7.332 16.476 7.056 16.932 7.056C17.028 7.056 17.256 7.08 17.4 7.2C17.52 7.296 17.556 7.428 17.568 7.524C17.556 7.596 17.58 7.812 17.568 8.16Z" fill="#0088CC"/>
</svg>
