<svg width="24" height="24" viewBox="0 0 24 24" fill="none" xmlns="http://www.w3.org/2000/svg">
  <path d="M23.498 6.186C23.2393 5.2738 22.4142 4.5487 21.4 4.4C19.7 4 12 4 12 4C12 4 4.3 4 2.6 4.4C1.5858 4.5487 0.760701 5.2738 0.502 6.186C0.2 7.6 0 9.2 0 12C0 14.8 0.2 16.4 0.502 17.814C0.760701 18.7262 1.5858 19.4513 2.6 19.6C4.3 20 12 20 12 20C12 20 19.7 20 21.4 19.6C22.4142 19.4513 23.2393 18.7262 23.498 17.814C23.8 16.4 24 14.8 24 12C24 9.2 23.8 7.6 23.498 6.186ZM9.6 15.6V8.4L16 12L9.6 15.6Z" fill="#FF0000"/>
</svg>
